<svg xmlns="http://www.w3.org/2000/svg" xmlns:xlink="http://www.w3.org/1999/xlink" width="50" height="50" viewBox="0 0 50 50">
  <defs>
    <clipPath id="clip-path">
      <rect width="50" height="50" fill="none"/>
    </clipPath>
  </defs>
  <g id="Component_16_1" data-name="Component 16 – 1" clip-path="url(#clip-path)">
    <circle id="Ellipse_13" data-name="Ellipse 13" cx="25" cy="25" r="25" fill="rgba(0,0,0,0.4)"/>
    <g id="Group_51" data-name="Group 51" transform="translate(-13.039 -104.937)">
      <path id="Path_135" data-name="Path 135" d="M53.709,129.4l.319.521-.319.522a19.2,19.2,0,0,1-3.834,4.239,17.291,17.291,0,0,1-22.646,0,19.377,19.377,0,0,1-3.863-4.236l-.326-.526.326-.526a19.377,19.377,0,0,1,3.863-4.236,17.291,17.291,0,0,1,22.646,0A19.186,19.186,0,0,1,53.709,129.4Zm-5.164-2.749a15.291,15.291,0,0,0-19.992,0,18.832,18.832,0,0,0-3.125,3.268,18.83,18.83,0,0,0,3.125,3.268,15.291,15.291,0,0,0,19.992,0,18.582,18.582,0,0,0,3.1-3.27A18.588,18.588,0,0,0,48.545,126.651Z" transform="translate(0 0)" fill="#fff"/>
      <path id="Path_136" data-name="Path 136" d="M171.863,177.858a6,6,0,1,1,6-6A6,6,0,0,1,171.863,177.858Zm0-10a4,4,0,1,0,4,4A4,4,0,0,0,171.863,167.863Z" transform="translate(-133.327 -41.941)" fill="#fff"/>
    </g>
  </g>
</svg>
