<svg xmlns="http://www.w3.org/2000/svg" width="78.514" height="72.362" viewBox="0 0 78.514 72.362">
  <g id="Group_366" data-name="Group 366" transform="translate(-265.735 134.014)">
    <path id="Path_2013" data-name="Path 2013" d="M338.676-49.02a2.394,2.394,0,0,0,2.456,2.477c2.887,0,4.841-3.566,5.52-6.668C343.574-54.173,338.67-52.394,338.676-49.02Z" transform="translate(-24.819 -27.405)" fill="#474747"/>
    <path id="Path_2014" data-name="Path 2014" d="M337.215-133.964c-2.936-.833-15.534,9.077-21.23,15.6a31.372,31.372,0,0,0-10.994-2.176A31.356,31.356,0,0,0,294-118.36c-5.7-6.527-18.3-16.437-21.231-15.6-3.441.972-8.741,21.037-6.494,39.012,1.18,9.44,7.79,33.3,38.719,33.3,14.233,0,23.273-4.943,29.027-11.216a25.036,25.036,0,0,0-6.543-5.358c-1.545,5.046-5.478,9.533-11.757,9.533-5.081,0-9.01-2.935-8.941-7.617.069-4.542,4.474-9.093,13.114-8.969.955.015,1.842.084,2.7.174.249-1.692.414-3.475.508-5.273-.476.5-3.482,3.287-7.241,3.236-2.371-.036-4.171-1.149-4.815-3.2a10.493,10.493,0,0,1-6.673,3.02c-3.193.073-5.2-1.5-4.994-6.353.169-3.958.128-6.613.128-6.613a2.513,2.513,0,0,0-3.748,1.769A40.523,40.523,0,0,0,295.6-88.07a13.125,13.125,0,0,1-3.41.577c-3.193-.043-3.586-1.5-3.518-3.8.164-5.4.21-9.143.21-9.143-1.533-.709-3.307-.371-3.746,1.768a47.136,47.136,0,0,0-.154,10.442,13.437,13.437,0,0,1-3.41.579c-2.846-.043-3.6-1.482-3.52-3.8.312-8.342.644-13.042.217-14.611a7.844,7.844,0,0,1,3.379-.852c2.6.039,4.268,2.4,4.439,2.655a9.053,9.053,0,0,1,6.18-2.5,5.642,5.642,0,0,1,4.439,2.657c3.985-3.757,9.572-3.418,9.489,2.3,0,0-.075,5.557.121,7.4.274,2.612,3.644,1.384,4.577.56.43-5.058.621-9.882.1-11.737a7.792,7.792,0,0,1,3.381-.854,3.473,3.473,0,0,1,3.629,3.7c-.24,4.405-.288,6.9-.2,8.5a1.67,1.67,0,0,0,1.874,1.731A5.325,5.325,0,0,0,323.2-93.99c0-.451,0-.9,0-1.345a68.569,68.569,0,0,0-.731-10.077,7.91,7.91,0,0,1,3.381-.853c2.7.041,3.4,2.18,3.629,3.7.917,5.984.28,12.99-.72,19.03a23.247,23.247,0,0,1,8.561,6.421,42.8,42.8,0,0,0,6.387-17.836C345.957-112.926,340.655-132.99,337.215-133.964Z" fill="#474747"/>
  </g>
</svg>
