<svg xmlns="http://www.w3.org/2000/svg" xmlns:xlink="http://www.w3.org/1999/xlink" width="50" height="50" viewBox="0 0 50 50">
  <defs>
    <clipPath id="clip-path">
      <rect width="50" height="50" fill="none"/>
    </clipPath>
  </defs>
  <g id="Component_17_1" data-name="Component 17 – 1" clip-path="url(#clip-path)">
    <circle id="Ellipse_14" data-name="Ellipse 14" cx="25" cy="25" r="25" fill="rgba(0,0,0,0.4)"/>
    <g id="Group_24" data-name="Group 24" transform="translate(13.427 -13.347)">
      <path id="Path_40" data-name="Path 40" d="M23.2,34.357l-6.7-6.7a.838.838,0,0,0-1.427.589V31.6H12.145Q2.813,31.6.693,36.87A11.917,11.917,0,0,0,0,41.228a15.715,15.715,0,0,0,1.662,5.9q.039.092.137.314t.177.393a1.487,1.487,0,0,0,.17.288.447.447,0,0,0,.366.223.382.382,0,0,0,.308-.131.488.488,0,0,0,.111-.327,2.664,2.664,0,0,0-.033-.347,2.707,2.707,0,0,1-.033-.307q-.066-.89-.066-1.61a11.139,11.139,0,0,1,.229-2.369,7.112,7.112,0,0,1,.635-1.813,4.553,4.553,0,0,1,1.047-1.322,6.143,6.143,0,0,1,1.381-.91,7.485,7.485,0,0,1,1.741-.556,16.6,16.6,0,0,1,2.015-.281q1.014-.079,2.3-.078h2.931v3.35a.833.833,0,0,0,1.427.589l6.7-6.7a.822.822,0,0,0,0-1.178Z" fill="#fff"/>
    </g>
  </g>
</svg>
